<svg width="120" height="36" viewBox="0 0 120 36" fill="none" xmlns="http://www.w3.org/2000/svg">
<path fill-rule="evenodd" clip-rule="evenodd" d="M0 31.9193H0.292324C0.401945 32.8693 0.73081 33.6367 1.1693 34.2579C1.68086 34.8425 2.41167 35.1348 3.36172 35.1348C4.31178 35.1348 4.93297 34.8791 5.33491 34.404C5.73686 33.8925 5.91956 33.4174 5.91956 32.8328C5.91956 32.0289 5.48107 31.4442 4.64064 31.1154C4.01945 30.8231 3.36172 30.6404 2.66746 30.3846C2.00973 30.2019 1.42508 29.8365 0.986593 29.398C0.548107 28.996 0.292324 28.2652 0.292324 27.3152C0.292324 26.3286 0.621188 25.5978 1.27892 24.9766C1.90011 24.3919 2.77708 24.0996 3.69059 24.0996C4.20216 24.0996 4.64064 24.1361 5.11567 24.2823C5.55415 24.465 5.9561 24.6843 6.24842 24.9766L6.75999 24.5746H7.01577V27.8267H6.72345C6.43113 26.8401 6.21188 26.2555 6.17534 25.9997C6.06572 25.7439 5.88302 25.4881 5.66377 25.2689C5.40799 24.9766 5.15221 24.7573 4.85988 24.6112C4.56756 24.465 4.27524 24.4285 3.90983 24.4285C3.17902 24.4285 2.59437 24.6112 2.19243 25.0862C1.79048 25.5247 1.60778 26.1093 1.60778 26.8767C1.60778 27.5344 1.75394 27.9729 2.11935 28.2287C2.52129 28.4845 3.21556 28.7768 4.27524 29.1057C5.29837 29.4345 6.10226 29.8365 6.61383 30.3846C7.05231 30.9327 7.3081 31.5539 7.3081 32.3212C7.3081 33.4174 6.97923 34.1848 6.21188 34.7329C5.51761 35.2445 4.64064 35.4637 3.50789 35.4637C2.52129 35.4637 1.64432 35.2079 0.803891 34.6598L0.146162 35.2079H0V31.9193Z" fill="black"/>
<path fill-rule="evenodd" clip-rule="evenodd" d="M11.0714 30.6408H14.5793L12.7523 26.1464L11.0714 30.6408ZM8.25781 35.2449V34.9526C8.44051 34.9526 8.65976 34.843 8.84246 34.6968C9.02516 34.5507 9.17132 34.4045 9.24441 34.1487L12.4965 25.6348L12.2042 25.1963C12.46 25.0502 12.6427 24.904 12.8619 24.6847C13.0081 24.5386 13.2639 24.2828 13.5562 23.8809L17.2468 33.4179C17.4295 33.9295 17.6487 34.2949 17.7949 34.5141C17.9776 34.6968 18.2699 34.843 18.6719 34.9161V35.2084H14.4697V34.9161C15.0178 34.9161 15.3467 34.8795 15.5659 34.7699C15.7121 34.6603 15.8217 34.4776 15.8217 34.2949C15.8217 34.1122 15.6755 33.491 15.2736 32.5775C14.9447 31.6274 14.7255 31.1524 14.7255 31.0793H10.9253C10.9253 31.1159 10.7426 31.6274 10.3772 32.614C10.0118 33.6006 9.82905 34.1487 9.82905 34.2584C9.82905 34.5141 9.93867 34.6603 10.1214 34.7699C10.3772 34.8065 10.6695 34.8795 11.108 34.9526V35.2449H8.25781Z" fill="black"/>
<path fill-rule="evenodd" clip-rule="evenodd" d="M21.6323 26V34.0389C21.6323 34.2947 21.7784 34.5505 21.9611 34.6967C22.2169 34.8428 22.5458 34.9525 23.0939 34.9525V35.2448H19.8418V34.9525C20.3534 34.9159 20.7188 34.8063 20.938 34.6967C21.1207 34.6601 21.2303 34.4043 21.2303 34.0389V34.0024V25.4885C20.9015 25.1231 20.6457 24.9038 20.4995 24.7942C20.3168 24.648 20.0976 24.5384 19.8418 24.5384V24.2461H22.2169L30.0731 32.9062V25.5981C30.0731 25.1961 29.9635 24.9404 29.7808 24.8673C29.6346 24.7211 29.2327 24.6846 28.6846 24.575V24.2461H32.0098V24.5384C31.4617 24.648 31.0597 24.7942 30.877 24.9404C30.6212 25.0865 30.5482 25.2692 30.5482 25.5981V35.3909H30.2924L21.6323 26Z" fill="black"/>
<path fill-rule="evenodd" clip-rule="evenodd" d="M38.1114 24.5745H35.4805C35.1517 24.5745 34.9324 24.6841 34.8228 24.7572C34.6766 24.8668 34.5305 25.013 34.3843 25.1957C34.2016 25.3784 33.9824 25.7438 33.69 26.1457C33.4343 26.5842 33.1785 26.8765 33.0323 27.0958L32.8496 26.9861L33.5073 24.0264C33.8362 24.0629 34.092 24.1725 34.3112 24.1725C34.4939 24.2091 34.7132 24.2821 34.8959 24.2821H42.8617C43.1175 24.2821 43.3002 24.2456 43.5194 24.1725C43.7021 24.1725 43.9579 24.0629 44.2502 24.0264L44.8349 26.9861L44.6522 27.0958C44.2502 26.5111 43.8118 25.8534 43.4829 25.2687C43.2271 25.013 43.0809 24.8668 42.9713 24.7572C42.8617 24.6476 42.6425 24.5745 42.3136 24.5745H39.6827V34.075C39.6827 34.4039 39.7923 34.6231 39.975 34.7693C40.1577 34.8789 40.5597 34.952 41.1443 34.952V35.2443H36.6133V34.952C37.1979 34.952 37.5633 34.8424 37.7826 34.7693C37.9653 34.6596 38.0749 34.4039 38.0749 34.075V24.5745H38.1114Z" fill="black"/>
<path fill-rule="evenodd" clip-rule="evenodd" d="M47.9771 30.6408H51.4485L49.6214 26.1464L47.9771 30.6408ZM45.127 35.2449V34.9526C45.3827 34.9526 45.5654 34.843 45.7116 34.6968C45.8943 34.5507 46.0405 34.4045 46.1501 34.1487L49.4022 25.6348L49.1099 25.1963C49.2926 25.0502 49.5118 24.904 49.6945 24.6847C49.8407 24.5386 50.0965 24.2828 50.3888 23.8809L54.0794 33.4179C54.3352 33.9295 54.4813 34.2949 54.664 34.5141C54.8102 34.6968 55.1025 34.843 55.5044 34.9161V35.2084H51.3388V34.9161C51.8504 34.9161 52.1793 34.8795 52.362 34.7699C52.5447 34.6603 52.6543 34.4776 52.6543 34.2949C52.6543 34.1122 52.4716 33.491 52.1062 32.5775C51.7042 31.6274 51.5581 31.1524 51.5215 31.0793H47.7213C47.7213 31.1159 47.5386 31.6274 47.1732 32.614C46.8078 33.6006 46.6251 34.1487 46.6251 34.2584C46.6251 34.5141 46.7347 34.6603 46.954 34.7699C47.1367 34.8065 47.5021 34.8795 47.904 34.9526V35.2449H45.127Z" fill="black"/>
<path fill-rule="evenodd" clip-rule="evenodd" d="M86.3094 24.575H86.5651V28.3387H86.3094C86.1632 27.206 85.7247 26.329 85.0304 25.5616C84.3727 24.8308 83.4958 24.4654 82.3995 24.4654C81.7053 24.4654 81.0841 24.6481 80.4264 25.1232C79.8417 25.5616 79.4032 26.0732 79.1474 26.6213C78.8551 27.1694 78.7089 27.7541 78.5993 28.3022C78.4897 28.8503 78.4532 29.3984 78.4532 29.983C78.4532 30.6773 78.4897 31.2985 78.7089 31.8101C78.8551 32.3582 79.0378 32.9063 79.4032 33.4544C79.7321 34.0025 80.134 34.4044 80.6821 34.7333C81.1937 35.0256 81.7053 35.1718 82.3265 35.1718C83.4227 35.1718 84.2996 34.8429 84.9939 34.1852C85.6882 33.4909 86.1267 32.6139 86.3459 31.5543H86.6382V35.0987H86.3459L85.8343 34.2948C85.3593 34.6968 84.7381 34.9891 84.1535 35.1718C83.4958 35.3545 82.9111 35.4641 82.2899 35.4641C80.5725 35.4641 79.184 34.9891 78.1974 33.9659C77.2108 32.9428 76.6992 31.5908 76.6992 29.8003C76.6992 28.156 77.2473 26.804 78.2705 25.7078C79.3667 24.6116 80.7552 24.0635 82.4361 24.0635C83.0938 24.0635 83.6419 24.1731 84.1169 24.3558C84.665 24.502 85.2132 24.7943 85.8343 25.1962L86.3094 24.575Z" fill="black"/>
<path fill-rule="evenodd" clip-rule="evenodd" d="M99.3538 29.9101C99.3538 30.6409 99.2077 31.4814 98.8423 32.3218C98.5134 33.1622 97.8922 33.893 97.0518 34.5508C96.1748 35.2085 95.0055 35.5008 93.6535 35.5008C91.7169 35.5008 90.3283 34.9162 89.4879 33.7103C88.6475 32.541 88.209 31.2987 88.209 29.9467C88.209 28.4485 88.5379 27.3157 89.1956 26.4388C89.8533 25.5618 90.5841 24.9771 91.4245 24.6117C92.265 24.2829 92.9958 24.1367 93.6901 24.1367C95.2248 24.1367 96.5037 24.6117 97.6364 25.6349C98.8057 26.5849 99.3538 28.01 99.3538 29.9101ZM93.8728 24.4656C92.7765 24.4656 91.8996 24.9041 91.0957 25.8541C90.3649 26.8042 89.9629 28.1927 89.9629 30.0197C89.9629 31.5179 90.2553 32.6872 90.9495 33.6738C91.6072 34.6604 92.4842 35.1719 93.6535 35.1719C94.8959 35.1719 95.8825 34.6238 96.5768 33.5276C97.271 32.4314 97.5999 31.189 97.5999 29.8736C97.5999 28.0831 97.198 26.7676 96.3575 25.8176C95.5902 24.9041 94.7132 24.4656 93.8728 24.4656Z" fill="black"/>
<path fill-rule="evenodd" clip-rule="evenodd" d="M99.9746 35.2448V34.9525C100.486 34.9525 100.815 34.9159 100.961 34.8063C101.144 34.6967 101.217 34.4774 101.217 34.0755V25.4885C101.217 25.0865 101.107 24.8307 100.925 24.7577C100.742 24.648 100.377 24.575 99.9746 24.575V24.2461H104.359V24.5384C103.775 24.5384 103.409 24.648 103.154 24.7942C102.898 24.9404 102.825 25.2327 102.825 25.6346V33.637C102.825 34.2216 102.934 34.5871 103.154 34.7332C103.409 34.8428 103.958 34.9159 104.725 34.9159H104.981H105.236C105.785 34.9159 106.26 34.8794 106.735 34.8063C107.137 34.6967 107.465 34.5505 107.721 34.3678C107.977 34.1851 108.269 33.8197 108.598 33.3812C108.927 32.8696 109.292 32.3581 109.694 31.6638H109.987L109.11 35.2082H99.9746V35.2448Z" fill="black"/>
<path fill-rule="evenodd" clip-rule="evenodd" d="M110.609 35.2448V34.9525C111.084 34.9525 111.413 34.9159 111.595 34.7698C111.815 34.6601 111.851 34.4043 111.851 34.0755V25.4885C111.851 25.0865 111.742 24.8307 111.559 24.7577C111.376 24.648 111.011 24.575 110.572 24.575V24.2461H118.721L119.525 26.8039L119.196 26.8405C118.94 26.5116 118.684 26.1097 118.392 25.7077C118.063 25.3058 117.698 25.0134 117.296 24.8307C116.894 24.648 116.419 24.5384 115.907 24.5384H113.496V29.4714H114.372C115.213 29.4714 115.871 29.3252 116.199 29.0694C116.528 28.8137 116.784 28.2655 117.003 27.4251H117.259V32.0292H117.003C116.894 31.1522 116.711 30.6041 116.382 30.3118C115.98 30.0195 115.432 29.8733 114.592 29.8733H113.496V34.112C113.496 34.4043 113.605 34.6601 113.788 34.7698C113.934 34.8794 114.226 34.9159 114.592 34.9159H116.382C116.821 34.9159 117.113 34.8794 117.405 34.7698C117.661 34.6601 117.99 34.3678 118.392 33.9659C118.83 33.5639 119.269 32.9793 119.671 32.285L119.963 32.3946L119.305 35.2082H110.609V35.2448Z" fill="black"/>
<path fill-rule="evenodd" clip-rule="evenodd" d="M66.4678 25.5615C66.5043 25.8173 66.7236 26.1462 66.614 26.402C66.614 26.4385 66.5774 26.4385 66.5043 26.4385C66.1755 26.4385 65.9197 26.4385 65.4812 26.4385C65.4447 26.1462 65.4447 25.8904 65.335 25.5981C65.2254 25.1596 64.8235 24.7576 64.385 24.648C63.8369 24.6115 63.3618 24.8307 62.9964 25.3423C62.5945 25.8904 62.7407 26.7308 62.9599 27.3155C63.508 28.1194 64.2023 28.7406 64.9331 29.3252C64.9696 29.3617 65.0427 29.4348 65.0793 29.4714C65.1158 29.5079 65.1158 29.5079 65.1158 29.581C64.7138 29.8368 64.2754 29.9829 63.8369 30.1656C63.8369 30.1656 63.8003 30.2022 63.7273 30.2022C63.5811 30.1656 63.4715 29.9098 63.3253 29.8002C62.9964 29.5079 62.7407 29.2156 62.4483 28.9598C62.1926 28.9598 62.0099 29.106 61.7906 29.2521C60.9136 29.8368 60.4021 30.933 60.5482 32.0292C60.5848 32.3581 60.804 32.6869 60.8771 32.9792C61.1694 33.5274 61.681 34.0755 62.2656 34.2216C63.5446 34.5139 64.6773 33.8562 65.5177 32.9792C66.1024 32.4311 66.5409 31.8099 67.1621 31.2618C67.7102 30.458 68.3314 29.7271 68.7333 28.9233C68.8429 28.6309 68.8795 28.229 68.6237 28.0463C68.4775 27.9001 68.2948 27.8636 68.1121 27.754C68.0756 27.6443 68.1487 27.6078 68.2217 27.6078C69.2083 27.6078 70.0853 27.6078 71.0354 27.5713C71.0719 27.6078 71.0719 27.6078 71.145 27.6809C70.9988 27.8636 70.7065 27.827 70.4872 27.9732C69.1352 28.5578 68.4044 29.9464 67.5275 30.9695C67.4178 31.1522 67.1986 31.2984 67.2351 31.6272C67.6371 32.1388 68.0756 32.7235 68.5141 33.1985C68.9525 33.7831 69.5007 34.5505 70.3776 34.5505C70.67 34.5505 70.9257 34.4043 71.2181 34.4409C71.2181 34.6236 71.0719 34.7332 70.9257 34.8428C70.268 35.3909 69.2814 35.5005 68.5141 35.2448C67.6736 34.8428 67.3813 34.0024 66.7967 33.3812C66.687 33.1254 66.5043 33.0523 66.3582 32.8331L66.2486 32.8696C65.4081 33.8928 64.6773 34.8794 63.3984 35.3544C62.5945 35.6102 61.5714 35.7929 60.7675 35.3544C59.7809 34.8428 59.1232 33.8562 59.1232 32.7965C59.0135 31.9561 59.3789 31.1522 59.8174 30.458C60.4021 29.6541 61.2425 29.2887 62.0464 28.7771L62.0829 28.6675C61.7906 28.1559 61.3887 27.6809 61.4252 27.0231C61.3887 26.2193 61.7175 25.4884 62.3753 24.9769C63.2522 24.3922 64.6408 24.2826 65.5908 24.8307C66.0293 24.9769 66.2851 25.2692 66.4678 25.5615Z" fill="black"/>
<path d="M83.6039 8.9354C83.5308 8.89886 83.4943 8.89886 83.4578 8.89886C83.4943 8.89886 83.5308 8.9354 83.6039 8.9354ZM82.8366 8.89886C82.6539 8.9354 82.5077 8.97194 82.3615 8.89886C82.5077 8.9354 82.6539 8.9354 82.8366 8.89886ZM72.0206 9.1181C71.9475 9.04502 71.8744 9.00848 71.8014 8.9354C71.7648 8.89886 71.6917 8.86232 71.6552 8.82578C71.8014 8.89886 71.911 9.00848 72.0206 9.1181ZM51.2656 13.576C51.4118 13.7222 51.3752 14.0145 51.3752 14.2338C51.2291 14.4165 51.0098 14.4165 50.8271 14.4165C50.5713 14.3799 50.3155 14.1607 50.279 13.9049C50.2425 13.7222 50.3155 13.503 50.4617 13.3933C50.7175 13.1741 51.0098 13.3933 51.2656 13.576ZM46.5519 12.3702C47.1 12.2606 47.1365 11.6394 47.7943 11.7125C48.1962 11.749 48.3424 12.2971 48.7808 12.151C49.2193 12.0048 50.4252 11.8586 50.5348 12.4433C50.3886 13.0279 50.2425 12.8087 50.0232 13.2472C49.9867 13.7587 49.9867 14.1972 49.7309 14.2338C49.6944 14.2703 49.0366 14.2338 48.452 14.1972C47.7577 14.2338 47.1 14.3799 47.1 14.3799C46.9538 14.2703 46.6615 14.2338 46.8442 13.8318C47.7577 13.1741 45.7114 12.8452 45.6018 12.6991C45.0537 12.4067 45.0172 12.4433 44.7614 12.1144C44.5056 11.3105 44.6518 10.3605 45.9672 11.1644C46.4423 11.4202 46.0403 12.1875 46.5519 12.3702ZM51.1925 5.53714C51.2291 5.82946 50.7906 6.0487 50.9367 6.34103C51.1925 6.88913 50.9367 6.70643 50.6079 7.18146C50.5713 7.54686 50.7175 7.87573 51.0098 7.91227C51.4118 8.05843 51.7041 8.16805 51.8502 7.76611C51.9964 7.61994 51.9964 7.25454 51.9599 7.07184V6.37757C51.9599 5.79292 52.0695 5.64676 52.2156 5.53714C52.4714 5.57368 52.4714 5.5006 53.4215 5.82946C53.7138 6.01216 54.1158 6.12178 54.4081 6.34103C54.7369 6.52373 55.3216 6.70643 55.7601 6.59681C56.3082 6.45065 55.9062 5.6833 56.3447 5.5006C56.7467 5.31789 56.8928 5.35443 57.1121 5.61022C57.2582 5.90254 57.2948 5.866 57.514 6.45065C57.8063 7.25454 58.1717 8.05843 58.1717 9.00848C58.2083 9.37389 58.0621 9.73929 57.8063 9.99507C57.6602 10.872 57.989 10.5797 57.6602 11.5298C57.514 11.8221 57.2582 12.0779 57.1121 12.3702C56.8563 12.6625 56.5274 12.9183 56.162 13.101C56.0524 13.1376 55.9793 13.0645 55.9062 12.9914C55.6505 12.6991 56.0889 12.4798 56.0159 12.1875C55.8697 12.0048 55.6505 11.9317 55.4312 11.8952C55.212 11.8952 54.9927 11.9317 54.7735 12.0779C54.5177 12.1144 53.4946 12.3702 53.2388 12.3702C52.6541 12.4067 52.2522 12.3702 51.8502 12.1875C51.8137 12.0413 51.7406 11.8952 51.8502 11.749C52.3984 11.4932 52.983 11.2009 53.6407 11.3105C54.0427 11.1278 54.4812 11.4202 54.8831 11.2009C55.1389 11.0913 55.4312 10.9451 55.4678 10.6893C55.6505 10.2874 55.2851 10.0316 55.1024 9.77583C54.8466 9.59313 54.5542 9.33735 54.5177 8.97194C54.3715 8.78924 54.2254 8.57 54.0792 8.42383L53.8234 8.16805C53.5677 7.87573 53.3119 8.02189 52.9099 8.13151C52.4714 8.38729 52.4714 9.00848 52.106 9.37389C51.7406 10.0682 51.0098 10.2143 50.279 10.2874C49.9867 10.2509 49.6213 10.1412 49.2924 10.0316C48.8905 9.77583 48.6347 9.37389 48.3424 8.97194C48.1962 8.78924 48.0866 8.53346 47.9404 8.31421C47.8308 8.02189 47.6481 8.05843 47.3558 7.87573C47.0269 7.83919 46.6615 7.72957 46.5153 8.05843C46.3692 8.46037 46.2961 8.89886 46.223 9.30081C46.1865 9.55659 45.9307 9.55659 45.7845 9.41043C45.4922 9.26427 45.346 9.52005 45.0537 9.55659C44.6883 9.70275 44.6518 9.73929 44.4691 9.84891C44.1037 10.1047 43.8844 10.1412 43.5556 10.5432C43.4094 10.799 43.1902 11.0913 42.8978 11.3471C42.4593 11.2375 42.7151 10.6893 42.7517 10.6163C42.8978 9.66621 43.6652 9.08156 44.2133 8.31421C44.7979 7.65648 44.9076 7.61994 45.4922 7.0353C45.6384 6.99875 46.1865 6.37757 46.9538 6.12178C47.6481 5.82946 47.7577 5.97562 48.3058 5.71984C49.1097 5.46405 49.6944 5.53714 50.0598 5.31789C50.3155 5.46405 50.9367 5.17173 51.1925 5.53714ZM81.4846 1.70038C83.677 2.24849 84.8098 3.49087 86.7464 4.03898C87.2945 4.18514 87.8426 4.1486 88.4273 4.1486L88.4638 4.3313L87.8792 4.514C87.8792 4.514 87.4772 4.514 87.0753 4.80633C87.0753 5.17173 87.1849 5.46405 87.4772 6.26795C87.6599 7.07184 87.8426 7.87573 87.9157 8.64308C87.9522 9.19118 87.9157 9.73929 87.9157 10.2874C87.8792 11.3836 87.5868 12.4798 87.1118 13.4664C86.6002 14.5992 85.7598 15.6954 84.6271 16.7185C83.5674 17.632 82.4346 18.5455 81.0826 18.9475L80.4249 19.1302L79.5845 19.2764C78.2325 19.4591 77.3555 19.5321 76.1131 19.2398C72.4591 18.2898 70.5224 16.6454 69.1339 13.101C68.8416 12.3337 68.2935 10.5432 68.2204 8.71616C68.1838 8.46037 68.2204 8.20459 68.2204 7.98535C68.2204 7.29108 68.3665 6.63335 68.33 5.97562C68.33 5.97562 68.3665 5.61022 68.33 5.57368C68.2204 5.46405 68.0377 5.46405 67.7454 5.31789C67.4896 5.17173 67.1973 5.13519 66.7953 4.91595C66.4299 4.73325 66.4299 4.73324 66.2107 4.58708C66.101 4.55054 65.6991 4.44092 65.5164 4.3313C64.8221 3.96589 63.9086 4.1486 63.7624 4.25822C63.5797 4.40438 63.4336 4.47746 63.1413 4.55054C62.6297 4.6967 62.447 4.84287 62.045 5.06211C61.6431 5.31789 61.3508 5.57368 61.2777 5.61022C60.9488 6.0487 61.7893 7.10838 61.3873 9.48351C61.095 11.4567 61.1315 10.9086 60.9488 11.7125C60.9123 12.0779 60.5469 12.9183 60.4007 13.3203C60.1084 14.1241 59.6699 14.8184 59.1949 15.33C58.6102 16.0608 57.9525 16.5724 56.7101 17.559C56.4543 17.7051 55.4312 18.3994 55.1754 18.509C53.2753 19.4591 52.3984 19.8975 49.9136 19.8975C49.7309 19.8975 49.0001 19.7879 48.7078 19.7514C47.977 19.6418 47.575 19.5687 46.8807 19.3129C45.9307 18.9475 44.9441 18.3263 44.2498 17.7051C43.8479 17.3032 42.9709 16.4993 42.642 16.0608C42.3863 15.7685 42.2401 15.5127 42.0939 15.2569C41.9478 15.0011 41.7651 14.7088 41.6555 14.5261C41.3631 13.9414 41.1439 13.3933 40.9977 12.6991C40.8881 12.151 40.8881 11.6394 40.8881 11.2375C40.8516 10.799 40.8516 10.397 40.8516 10.0316C40.8881 9.33735 41.0708 8.57 41.3997 7.32762L41.692 6.41411L42.0939 5.57368L43.1536 3.89281V3.74665C43.0074 3.45433 42.8613 3.49087 42.569 3.45433C42.0574 3.30817 41.4727 3.27163 41.8382 2.76006C41.9478 2.76006 42.0574 2.76006 42.1305 2.7966C42.6786 2.90622 43.2632 2.83314 43.8113 2.9793C45.4191 2.39465 46.9173 1.84655 48.6347 1.6273C49.1828 1.48114 50.2425 1.33498 51.1925 1.33498C52.2522 1.29844 53.2753 1.4446 53.9331 1.4446L54.7369 1.55422C55.4678 1.55422 57.039 1.95617 58.2814 2.50428C59.1949 2.90622 59.9257 3.34471 60.218 3.74665C60.4738 4.03898 60.7661 4.80633 60.9854 4.98903C61.3873 5.35443 61.8258 4.80633 62.2277 4.58708C63.2874 4.07552 63.2874 3.96589 63.7259 3.78319C64.3471 3.52741 65.1875 3.60049 65.7722 3.85627C66.0645 4.00244 66.2107 4.11206 66.6491 4.29476C67.3434 4.66016 67.7819 5.02557 68.5127 5.02557C68.9512 4.29476 69.0974 3.67357 69.6089 3.01584C70.157 2.43119 70.9975 1.77347 71.9475 1.40806C72.861 1.04266 73.738 0.969575 74.8342 0.859954C77.2459 0.713792 79.5114 1.00612 81.4846 1.70038ZM79.1825 7.0353C79.0729 6.74297 78.7806 6.74297 78.4883 6.74297C77.9767 6.77951 77.6844 6.88913 77.5382 7.4007C77.3555 7.76611 77.794 7.94881 78.0498 8.13151C78.4152 8.16805 78.8902 8.09497 79.146 7.83919C79.2191 7.5834 79.3652 7.29108 79.1825 7.0353ZM83.7501 9.04502C83.7135 9.00848 83.6405 8.97194 83.5674 8.9354C83.5308 8.89886 83.4578 8.89886 83.4212 8.89886C83.202 8.82578 82.9827 8.86232 82.8 8.89886C82.6173 8.9354 82.4712 8.97194 82.325 8.89886C82.1058 8.7527 82.1788 8.16805 81.8134 7.80265C81.375 7.36416 80.6807 6.88913 80.2787 7.25454C80.1691 7.36416 80.1326 7.61994 80.096 7.91227C80.0595 8.09497 80.023 8.31421 79.9864 8.53346C79.9499 8.67962 79.9133 8.82578 79.8768 8.97194C79.8403 9.08156 79.8037 9.19118 79.7306 9.30081C79.621 9.52005 79.4749 9.73929 79.2922 9.88545C79.2191 9.95853 79.146 9.99508 79.0729 10.0682C77.9767 10.4701 78.4152 10.4701 76.917 10.2143C76.3324 10.1047 75.6746 9.48351 75.0169 8.97194C74.3226 8.38729 73.6284 7.87573 72.861 8.31421C72.7149 8.49691 72.6783 8.71616 72.7149 8.97194C72.7514 9.33735 73.0072 9.77583 73.3726 10.2143C73.9207 10.9451 74.688 11.6759 75.1996 11.9683C75.7843 12.3337 76.3324 12.0048 76.8805 12.2606C77.2093 12.4067 77.319 12.8087 77.4286 12.8452C77.5382 12.9549 77.6844 12.9549 77.9767 12.6625C78.0132 12.626 78.3421 12.3337 78.4152 12.3702C78.671 12.4798 78.4152 12.8087 78.3786 12.8818C77.6478 14.0876 77.6844 13.978 76.5882 13.8318C75.3823 13.3933 74.6881 13.2837 73.8476 12.8452C73.1534 12.4798 73.1533 11.3836 72.861 10.7624C72.7149 10.0682 72.4225 9.59313 71.9475 9.19118C71.8379 9.08156 71.6917 9.00848 71.5456 8.89886C71.4359 8.82578 71.3263 8.7527 71.1802 8.67962C70.9975 8.57 70.8513 8.49691 70.6321 8.42383C70.3397 8.27767 70.2666 7.91227 70.1205 7.51032C69.7551 6.99876 69.5358 6.26795 68.8781 6.52373C68.7685 6.56027 68.732 6.56027 68.732 6.63335C68.6223 7.72956 68.4762 8.78924 68.6954 10.0316L69.1339 12.0779C69.4262 13.0279 69.5358 13.0279 69.7185 13.7587C69.9743 14.1607 70.157 14.7088 70.3763 15.0377C70.9244 15.9877 71.5821 16.4993 72.5322 17.2301C73.1899 17.7417 73.4822 17.9244 74.5053 18.4359C75.1631 18.6917 76.442 19.0206 77.2093 19.0937C78.744 19.2033 78.3421 19.0937 79.9133 18.8379C81.1557 18.6917 83.3847 17.3397 84.9559 15.805C85.3213 15.4396 85.5406 15.1107 85.7964 14.7453C86.1983 14.1972 86.6002 13.6126 86.7464 12.9914C86.8926 12.626 87.258 11.4932 87.258 11.2009C87.4041 9.81237 87.2945 8.46037 87.2214 8.09497C87.0387 6.81605 86.6733 5.5006 86.5272 5.09865C86.1618 4.25822 84.152 3.162 82.1788 2.46773C80.8999 1.95617 79.5479 1.55422 78.8537 1.51768C78.744 1.51768 78.3421 1.48114 78.269 1.48114C78.0132 1.4446 77.9767 1.48114 77.7209 1.4446C77.0632 1.33498 76.4785 1.33498 75.7843 1.33498C74.7246 1.4446 74.0303 1.37152 73.0072 1.6273C70.9975 2.21195 71.3629 2.17541 70.9244 2.46773C70.6321 2.65044 70.1936 3.05238 69.8647 3.38125L69.1704 4.47746C69.0243 4.87941 68.732 5.57368 68.8781 5.97562C69.1704 6.01216 69.2801 5.79292 69.4262 5.57368C69.5724 5.20827 69.7551 4.91595 69.9743 4.84287C70.7782 4.3313 71.8744 4.55054 72.1302 4.47746C72.5687 4.44092 74.4688 4.3313 74.9804 4.36784C75.09 4.36784 76.2227 4.73324 76.442 4.76979C77.0266 5.02557 77.6844 5.35443 78.269 5.5006C78.9998 5.6833 79.7672 5.64676 80.8269 5.93908C81.9231 6.2314 82.9097 6.37757 83.7501 7.218C83.8963 7.36416 84.2617 7.69302 84.5905 8.09497C84.8463 8.38729 85.1021 8.67962 85.2483 8.97194C85.3213 9.19118 85.3213 9.37389 85.1752 9.52005C85.1386 9.55659 85.1021 9.59313 85.0655 9.59313C84.8463 9.73929 84.2617 9.22772 83.7501 9.04502ZM60.8027 6.59681C60.2911 0.677251 49.1462 1.77347 48.1231 2.17541C47.2827 2.28503 46.6615 2.72352 45.8941 2.86968C45.4922 3.01584 45.6384 2.9793 45.4557 3.01584C44.3594 3.38125 43.519 4.22168 42.8613 5.24481C42.4228 5.97562 42.0209 6.85259 41.8747 7.54686C41.4362 9.08156 41.29 10.397 41.3266 11.3836C41.3266 11.9317 41.4362 12.4433 41.5093 12.8452C41.6189 13.3568 41.8382 14.1241 41.9478 14.3069C42.2766 15.0011 42.9344 15.9146 43.4459 16.4993C43.7383 16.8647 44.0306 17.157 44.396 17.4493C44.9076 17.8513 45.4922 18.2532 46.0038 18.5455C46.1499 18.6552 46.9904 19.0571 47.2096 19.0937C48.0135 19.3494 48.1962 19.386 48.8905 19.4956C49.4386 19.6052 50.0232 19.6783 50.9733 19.6052C52.4714 19.5687 53.4215 19.0206 53.7138 18.8744C54.5542 18.4725 54.5542 18.509 56.8198 16.9743C58.5737 15.7685 59.268 14.6357 59.9622 13.2472C60.3642 12.4067 60.5103 12.0413 60.6565 10.8355C60.7661 10.3239 60.693 11.3836 60.8392 9.44697C60.8757 8.86232 60.9488 8.71616 60.8757 8.31421C60.9488 7.5834 60.8757 6.96221 60.8027 6.59681Z" fill="black"/>
</svg>
