<svg width="21" height="20" viewBox="0 0 21 20" fill="none" xmlns="http://www.w3.org/2000/svg">
<g clip-path="url(#clip0_269_2)">
<path d="M14.3159 13.0579L13.7845 13.5861C13.7845 13.5861 12.5214 14.8421 9.07394 11.414C5.62646 7.98616 6.88947 6.73031 6.88947 6.73031L7.22407 6.39759C8.04844 5.57796 8.12614 4.26204 7.40689 3.30137L5.93579 1.33624C5.04565 0.14722 3.32561 -0.00984792 2.30535 1.00462L0.474148 2.82542C-0.0317415 3.32844 -0.370752 3.9805 -0.329638 4.70386C-0.224463 6.55444 0.612818 10.5361 5.28491 15.1817C10.2394 20.108 14.8883 20.3038 16.7893 20.1266C17.3906 20.0706 17.9135 19.7643 18.3349 19.3453L19.9923 17.6975C21.111 16.5851 20.7956 14.678 19.3642 13.9L17.1353 12.6883C16.1954 12.1774 15.0504 12.3274 14.3159 13.0579Z" fill="#1D1D1F"/>
</g>
<defs>
<clipPath id="clip0_269_2">
<rect width="21" height="20" fill="white"/>
</clipPath>
</defs>
</svg>
